PathFileType	4	(X/Y/Z)	C:/Users/opensim2020/Desktop/walking_exp_matlab/subject03_walking13_straight_02.trc																																																																																																																																								
DataRate	CameraRate	NumFrames	NumMarkers	Units	OrigDataRate	OrigDataStartFrame	OrigNumFrames																																																																																																																																				
100	100	4	46	mm	100	1151	193																																																																																																																																				
Frame#	Time	LFHD			RFHD			LBHD			RBHD			C7			T10			CLAV			STRN			RBAK			LSHO			LUPA			LELB			LFRM			LWRA			LWRB			LFIN			RSHO			RUPA			RELB			RFRM			RWRA			RWRB			RFIN			LASI			RASI			LPSI			RPSI			LTHI			LKNE			LTIB			LANK			LHEE			LTOE			RTHI			RKNE			RTIB			RANK			RHEE			RTOE			*39			*40			*41			*42			*43			*44			*45		
		X1	Y1	Z1	X2	Y2	Z2	X3	Y3	Z3	X4	Y4	Z4	X5	Y5	Z5	X6	Y6	Z6	X7	Y7	Z7	X8	Y8	Z8	X9	Y9	Z9	X10	Y10	Z10	X11	Y11	Z11	X12	Y12	Z12	X13	Y13	Z13	X14	Y14	Z14	X15	Y15	Z15	X16	Y16	Z16	X17	Y17	Z17	X18	Y18	Z18	X19	Y19	Z19	X20	Y20	Z20	X21	Y21	Z21	X22	Y22	Z22	X23	Y23	Z23	X24	Y24	Z24	X25	Y25	Z25	X26	Y26	Z26	X27	Y27	Z27	X28	Y28	Z28	X29	Y29	Z29	X30	Y30	Z30	X31	Y31	Z31	X32	Y32	Z32	X33	Y33	Z33	X34	Y34	Z34	X35	Y35	Z35	X36	Y36	Z36	X37	Y37	Z37	X38	Y38	Z38	X39	Y39	Z39	X40	Y40	Z40	X41	Y41	Z41	X42	Y42	Z42	X43	Y43	Z43	X44	Y44	Z44	X45	Y45	Z45	X46	Y46	Z46
																																																																																																																																											
73	0.72	-399.74005	1594.99817	-1457.77795	-420.31372	1600.14673	-1326.39172	-528.53125	1557.25244	-1471.43286	-544.14911	1562.24915	-1342.32581	-573.6618	1394.6571	-1416.8728	-605.56641	1080.29797	-1416.27148	-452.23129	1318.54553	-1401.27295	-407.08762	1154.31787	-1406.35107	-636.6969	1214.24548	-1333.32043	-481.1731	1359.03931	-1559.51477	-443.27789	1176.48523	-1641.37817	-398.51743	1064.54578	-1659.05322	-306.18195	976.61346	-1647.83069	-222.89275	899.89227	-1603.11072	-239.25372	884.98474	-1653.79578	-173.22966	837.72644	-1637.92114	-523.38428	1338.70752	-1249.01099	-552.7832	1117.31238	-1179.05969	-550.88666	1004.40442	-1163.38464	-559.25763	867.49957	-1157.104	-542.77057	766.35425	-1185.06018	-581.263	769.07373	-1146.17065	-573.17413	693.70099	-1154.02344	-440.63058	919.00073	-1532.31946	-435.12949	921.89728	-1293.02441	-601.18219	938.22614	-1473.30273	-598.12213	942.21442	-1325.64905	-539.30573	625.12048	-1570.55676	-580.07965	449.14197	-1539.87952	-708.01611	292.12958	-1548.14514	-825.34937	116.29874	-1515.57373	-880.24957	100.44098	-1483.37109	-700.95337	33.63793	-1478.13342	-419.89932	632.10864	-1242.60156	-339.47177	475.0062	-1283.37915	-317.08353	285.47583	-1272.24646	-264.8056	73.29498	-1311.80798	-299.14566	32.50612	-1364.03918	-121.70182	66.39143	-1330.96753	NaN	NaN	NaN	NaN	NaN	NaN	NaN	NaN	NaN	NaN	NaN	NaN	NaN	NaN	NaN	NaN	NaN	NaN	NaN	NaN	NaN
74	0.73	-386.37619	1594.54285	-1457.8291	-406.35974	1600.08801	-1326.26331	-515.70453	1556.70325	-1471.3324	-530.13544	1561.74194	-1341.24463	-559.84137	1394.11438	-1415.29785	-590.81958	1079.47314	-1414.86633	-437.9848	1318.07532	-1400.36218	-392.5256	1154.04529	-1405.35583	-621.95038	1213.54346	-1331.37451	-468.29648	1358.44177	-1558.63184	-431.67993	1175.63391	-1640.83484	-386.66379	1064.09497	-1658.3562	-292.22293	979.3175	-1646.30505	-206.70831	906.00378	-1600.60132	-222.57921	889.79816	-1650.97839	-154.98581	845.80615	-1634.99072	-508.26666	1338.28955	-1247.70154	-537.0929	1116.81104	-1177.72607	-535.50635	1003.93042	-1162.17908	-544.19525	867.0752	-1155.93848	-528.11053	765.75836	-1184.11072	-566.74512	768.62494	-1144.92749	-559.48877	693.18909	-1153.14844	-425.12869	918.104	-1530.87024	-419.89301	922.61993	-1291.59143	-586.30249	937.2691	-1472.23926	-583.32312	942.02899	-1324.65454	-523.33954	623.76569	-1570.03125	-563.19965	447.237	-1540.85303	-696.44708	293.9483	-1548.49646	-819.74536	122.94276	-1515.67688	-874.84546	109.8711	-1483.08765	-700.34241	33.42081	-1477.99634	-401.93439	633.61121	-1242.073	-323.14905	475.58185	-1282.48474	-305.7673	284.21985	-1273.26111	-259.82693	71.95107	-1312.03162	-297.09186	35.08457	-1365.30103	-116.82298	52.3777	-1331.69836	NaN	NaN	NaN	NaN	NaN	NaN	NaN	NaN	NaN	NaN	NaN	NaN	NaN	NaN	NaN	NaN	NaN	NaN	NaN	NaN	NaN
75	0.74	-373.03674	1594.60303	-1457.85437	-392.36249	1600.5592	-1326.14514	-502.13696	1556.16443	-1470.34192	-516.22632	1561.81348	-1340.47632	-546.18201	1393.8822	-1413.73645	-576.07391	1079.099	-1413.49841	-423.85757	1318.12622	-1399.44995	-378.00247	1154.396	-1404.39783	-607.20642	1213.08521	-1329.50146	-455.35007	1358.13647	-1557.79956	-420.40802	1174.83789	-1640.40186	-375.16052	1063.52734	-1657.6698	-278.98502	982.00891	-1644.84595	-191.37981	911.91461	-1598.23352	-206.79601	894.45013	-1648.24585	-137.50844	853.63123	-1632.05627	-493.06308	1338.20886	-1246.30261	-521.04663	1116.48816	-1176.31982	-519.67035	1003.59229	-1160.98694	-528.60486	866.71118	-1154.8396	-513.21649	765.30255	-1183.21277	-551.3222	768.31262	-1143.71777	-544.37122	692.68915	-1152.47778	-409.43542	917.48889	-1529.22388	-404.75137	923.44989	-1290.02319	-571.13104	936.51447	-1471.1665	-568.26501	941.97601	-1323.62366	-506.17502	622.29785	-1569.63586	-544.60339	445.14984	-1542.00793	-683.35443	296.0694	-1548.69019	-812.81213	130.70158	-1515.42126	-867.82391	120.83382	-1482.35242	-699.63202	33.40926	-1477.89185	-384.63342	635.55878	-1240.94189	-307.35953	476.94525	-1281.91174	-293.63647	284.62567	-1273.125	-254.66228	71.17414	-1310.9209	-294.77118	36.89763	-1363.50854	-112.90952	43.933	-1333.58801	NaN	NaN	NaN	NaN	NaN	NaN	NaN	NaN	NaN	NaN	NaN	NaN	NaN	NaN	NaN	NaN	NaN	NaN	NaN	NaN	NaN
76	0.75	-359.6669	1595.04358	-1457.83936	-378.22397	1601.43262	-1326.10876	-488.93918	1556.38525	-1469.84155	-502.05405	1562.32837	-1339.77966	-532.34253	1393.96045	-1411.90601	-561.36285	1079.17615	-1412.32275	-409.86646	1318.65833	-1398.52173	-363.58456	1154.93359	-1403.34985	-592.61523	1213.06641	-1327.55322	-442.46625	1358.15771	-1556.96875	-409.4299	1174.26587	-1639.84607	-364.24945	1063.32532	-1657.12036	-266.4205	984.38593	-1643.36731	-177.08595	917.51953	-1595.96326	-191.89825	898.93402	-1645.76819	-121.18209	861.2099	-1629.30627	-477.91022	1338.43079	-1244.82446	-504.69479	1116.47412	-1174.8573	-503.40546	1003.53784	-1159.76782	-512.46265	866.62653	-1153.70178	-497.27179	765.34052	-1182.38843	-535.22772	768.23608	-1142.49109	-529.14081	692.63141	-1151.63342	-393.71991	917.06409	-1527.47803	-389.7984	924.42816	-1288.27893	-555.87659	936.0274	-1470.29163	-553.12451	942.43945	-1322.5946	-487.93033	620.86285	-1569.23694	-524.39618	442.97556	-1543.62097	-668.49152	298.58011	-1548.76086	-803.53705	138.81485	-1513.80322	-858.24316	132.62825	-1480.28027	-698.33844	33.29789	-1477.46521	-368.47107	637.33911	-1238.89478	-291.65585	479.41513	-1280.36145	-281.26868	285.65936	-1271.5354	-248.99344	71.27017	-1310.79932	-292.37097	38.9121	-1361.88806	-108.27203	41.4362	-1333.26074	NaN	NaN	NaN	NaN	NaN	NaN	NaN	NaN	NaN	NaN	NaN	NaN	NaN	NaN	NaN	NaN	NaN	NaN	NaN	NaN	NaN
